<svg xmlns="http://www.w3.org/2000/svg" width="210" height="44" viewBox="0 0 210 44">
    <g data-name="Group 12882">
        <g data-name="Group 1">
            <path data-name="Path 1" d="m308.264 3355.249 11.935-6.706a2.272 2.272 0 0 0 0-3.989l-11.678-6.563a2.368 2.368 0 0 0-3.747 1.884v13.344a2.36 2.36 0 0 0 3.49 2.029zm2.025-20.1 15.318 8.607a3.194 3.194 0 0 0 3.12 0l.105-.059a2.272 2.272 0 0 0 0-3.99l-20.311-11.412a2.373 2.373 0 0 0-3.747 1.883v.221a.549.549 0 0 1-.824.463l-2.216-1.245a.53.53 0 0 1-.266-.566 5.839 5.839 0 0 1 8.821-3.606l20.253 11.381a5.556 5.556 0 0 1 .042 9.726l-24.144 13.565a3.225 3.225 0 0 0-1.666 2.808 2.373 2.373 0 0 0 3.747 1.884l20.311-11.413a2.272 2.272 0 0 0 0-3.989l-.2-.112a.528.528 0 0 1 0-.926l2.213-1.243a.562.562 0 0 1 .638.059 5.55 5.55 0 0 1-.944 9.091l-20.253 11.381a5.8 5.8 0 0 1-8.931-4.683v-27.358a2.845 2.845 0 0 0-1.467-2.475 2.373 2.373 0 0 0-3.747 1.884v23.046a2.373 2.373 0 0 0 3.747 1.885.549.549 0 0 1 .824.462v2.479a.539.539 0 0 1-.376.509 5.744 5.744 0 0 1-7.613-5.335v-23.046a5.781 5.781 0 0 1 8.633-4.9q4.468 2.507 8.933 5.019z" transform="translate(-292.723 -3324.549)" style="fill:#2a0c64;fill-rule:evenodd"/>
            <path data-name="Path 2" d="M628.8 3717.019a.873.873 0 0 0 1.38.714l7.487-4.323a.872.872 0 0 0 0-1.511l-7.487-4.323a.874.874 0 0 0-1.38.714z" transform="translate(-613.613 -3690.712)" style="fill:#18f040"/>
        </g>
        <g data-name="Group 2">
            <path data-name="Path 3" d="m66.475 12.191-3.121 1.849a5.364 5.364 0 0 0-1.667-1.981 3.885 3.885 0 0 0-2.13-.528 3.935 3.935 0 0 0-2.658.907 2.816 2.816 0 0 0-1.057 2.246q0 1.866 2.774 3.005l2.543 1.041a10.854 10.854 0 0 1 4.541 3.063 6.9 6.9 0 0 1 1.436 4.433 7.79 7.79 0 0 1-2.345 5.813 8.048 8.048 0 0 1-5.862 2.312 7.841 7.841 0 0 1-5.482-1.966 9.038 9.038 0 0 1-2.658-5.531l3.9-.859a6.629 6.629 0 0 0 .925 3.1 4.394 4.394 0 0 0 6.456.446 4.17 4.17 0 0 0 1.189-3.056 4.294 4.294 0 0 0-.206-1.362 3.464 3.464 0 0 0-.644-1.139 5.14 5.14 0 0 0-1.131-.975 10.915 10.915 0 0 0-1.651-.867l-2.46-1.024q-5.235-2.211-5.235-6.473a6.142 6.142 0 0 1 2.2-4.806 7.936 7.936 0 0 1 5.465-1.948q4.401.006 6.878 4.3z"/>
            <path data-name="Path 4" d="M71.065 5.998h3.715v13.144a6.4 6.4 0 0 1 4.376-1.783 5.655 5.655 0 0 1 4.359 1.767q1.387 1.537 1.387 4.9v9.857h-3.715v-9.511a4.529 4.529 0 0 0-.686-2.8 2.638 2.638 0 0 0-2.2-.867 3.031 3.031 0 0 0-2.741 1.206 8.266 8.266 0 0 0-.776 4.194v7.777h-3.715z"/>
            <path data-name="Path 5" d="M89.047 11.116a2.424 2.424 0 0 1 2.411-2.394 2.344 2.344 0 0 1 1.717.709 2.285 2.285 0 0 1 .71 1.7 2.34 2.34 0 0 1-.71 1.717 2.285 2.285 0 0 1-1.7.71 2.425 2.425 0 0 1-2.427-2.444zm4.277 6.687v16.083h-3.716V17.803z"/>
            <path data-name="Path 6" d="M101.745 42.891H98.03V18.057h3.715v1.75a6.875 6.875 0 0 1 4.987-2.2 6.955 6.955 0 0 1 5.466 2.444 8.824 8.824 0 0 1 2.179 6.126 8.692 8.692 0 0 1-2.163 6.027 7.048 7.048 0 0 1-10.469.132zm8.835-16.694a5.558 5.558 0 0 0-1.255-3.765 4.056 4.056 0 0 0-3.2-1.469 4.244 4.244 0 0 0-3.319 1.42 5.382 5.382 0 0 0-1.272 3.731 5.5 5.5 0 0 0 1.272 3.732 4.17 4.17 0 0 0 3.3 1.437 4.026 4.026 0 0 0 3.187-1.453 5.276 5.276 0 0 0 1.286-3.639z"/>
            <path data-name="Path 7" d="M118.306 17.945h3.715v1.437a7.091 7.091 0 0 1 1.816-1.47 4.171 4.171 0 0 1 1.915-.413 6 6 0 0 1 3.071.958l-1.7 3.4a3.551 3.551 0 0 0-2.064-.759q-3.038 0-3.038 4.591v8.339h-3.715z"/>
            <path data-name="Path 8" d="M129.899 25.873a7.992 7.992 0 0 1 2.494-5.927 8.795 8.795 0 0 1 12.186.017 8.611 8.611 0 0 1-.016 12.1 8.521 8.521 0 0 1-6.159 2.428 8.172 8.172 0 0 1-6.061-2.477 8.329 8.329 0 0 1-2.444-6.141zm3.8.066a5.423 5.423 0 0 0 1.288 3.814 5.006 5.006 0 0 0 6.968.017 6.037 6.037 0 0 0 0-7.5 4.943 4.943 0 0 0-6.935 0 5.164 5.164 0 0 0-1.323 3.669z"/>
            <path data-name="Path 9" d="M163.502 18.641v4.937a9.05 9.05 0 0 0-2.279-2.13 4.437 4.437 0 0 0-2.329-.594 4.589 4.589 0 0 0-3.484 1.469 5.158 5.158 0 0 0-1.387 3.682 5.272 5.272 0 0 0 1.337 3.716 4.509 4.509 0 0 0 3.451 1.453 4.722 4.722 0 0 0 2.361-.577 9.363 9.363 0 0 0 2.328-2.18v4.9a9.767 9.767 0 0 1-4.525 1.172 8.656 8.656 0 0 1-6.241-2.411 8.044 8.044 0 0 1-2.51-6.027 8.152 8.152 0 0 1 2.543-6.077 8.6 8.6 0 0 1 6.241-2.477 9.332 9.332 0 0 1 4.494 1.144z"/>
            <path data-name="Path 10" d="M171.693 5.998v17.008l5.233-5.2h4.987l-6.985 6.754 7.5 9.329h-4.822l-5.316-6.786-.593.594v6.192h-3.716V6z"/>
            <path data-name="Path 11" d="M198.921 26.864h-11.532a4.882 4.882 0 0 0 1.289 3.154 3.928 3.928 0 0 0 2.924 1.156 3.8 3.8 0 0 0 2.294-.661 9.394 9.394 0 0 0 2.032-2.443l3.137 1.75a12.465 12.465 0 0 1-1.535 2.121 8.208 8.208 0 0 1-1.734 1.454 6.987 6.987 0 0 1-2 .834 9.761 9.761 0 0 1-2.33.265 7.567 7.567 0 0 1-5.779-2.312 8.665 8.665 0 0 1-2.18-6.176 8.908 8.908 0 0 1 2.113-6.175 8.053 8.053 0 0 1 11.261-.065 8.9 8.9 0 0 1 2.047 6.225zm-3.815-3.038a3.559 3.559 0 0 0-3.748-2.972 3.843 3.843 0 0 0-1.272.207 3.643 3.643 0 0 0-1.081.594 3.768 3.768 0 0 0-.834.933 4.315 4.315 0 0 0-.529 1.238z"/>
            <path data-name="Path 12" d="M207.11 21.373v12.616h-3.717V21.373h-1.584v-3.468h1.584V12.01h3.717v5.895H210v3.468z"/>
        </g>
    </g>
</svg>
